<svg id="Layer_1" data-name="Layer 1" xmlns="http://www.w3.org/2000/svg" viewBox="0 0 1138 8.3"><defs><style>.cls-1{fill:#e9e9e9;}</style></defs><title>monster-divider</title><path class="cls-1" d="M801.24,6.54l5.65.5c4.14.36,8.35.68,12.52,1l6.89.48,5.19.36c3.8.26,7.85.43,12,.5,1.52,0,3.07,0,4.57,0,2,0,3.94,0,5.92-.08,4.51-.08,8.7-.27,12.79-.56,3.22-.23,6.43-.48,9.65-.74l2.15-.17c3.58-.28,6.85-.57,10-.89h0c3.93-.39,8.17-.79,12.53-1.06,2.41-.15,4.54-.25,6.52-.31,2.32-.08,4.68-.1,7-.13l3.45,0c4.73,0,9.62-.11,14.42,0,5.23.07,10.52.34,15.64.61l6.43.34,9.8.51c5,.25,10,.6,14.93.93l.55,0,6.07.42,8.26.58c2,.13,4.32.27,6.64.32,1.54,0,3.1,0,4.41,0H1007c7.91-.08,16.51-.38,26.27-.91,4-.22,8.12-.5,11.94-.78,5-.36,10.18-.67,15.27-.93,5.72-.3,10.82-.5,15.57-.61,5.24-.13,10.51-.12,15.89-.09,2.36,0,4.71.06,7.06.1,2.72,0,5.53.09,8.3.09h0l4.12,0c3.16,0,6.43,0,9.65.06,1.65,0,3.42.16,5.43.32h0c1.76.15,3.2.32,4.52.51l6.17.89A1.67,1.67,0,0,0,1139,7a.6.6,0,0,0-.06-.5A1.21,1.21,0,0,0,1138,6l-.48-.07c-1.48-.21-3-.41-4.43-.65l-1-.16c-1-.16-2-.32-3-.46a92,92,0,0,0-10.36-.81c-2.91-.09-5.87-.08-8.74-.07h-5.44l-4.91-.09-2.47,0c-3-.06-5.91-.05-8.66,0-2.46,0-5.07,0-7.64.08-2,0-4.08.12-6.07.19l-1.64.06c-4.85.19-10.05.46-15.89.83-5.15.34-9.94.68-14.65,1.06-4.29.35-8.53.59-11.75.76-4.54.25-9.16.43-13.51.58-4,.15-7.94.22-12.65.28-2.28,0-4.2,0-6-.06-2.39-.09-4.81-.26-7.15-.42l-.34,0-14.53-1C972,5.61,967,5.32,961.05,5c-2.81-.14-5.62-.3-8.42-.45l-7.34-.41c-2.54-.13-5-.26-7.55-.35s-5.32-.16-8.49-.19c-4.54,0-9.16,0-13.62,0h-3c-4.45,0-8.6.14-12.67.36-4.25.24-8.49.6-11.72.89-3.94.35-8,.65-11.86.94L873.83,6c-3.88.29-7.9.59-11.85.79-4.18.22-8.44.27-12.55.32h-1.37c-2.19,0-4,0-5.71,0-2.44,0-4.9-.14-7.21-.25-2.11-.09-4.25-.23-6.32-.37l-.47,0L821.13,6c-4.72-.28-9.41-.62-14-1h0l-.51,0-6.3-.56c-3.87-.35-7.88-.71-11.82-1-7.51-.59-15-.62-22.08-.59h-.75c-1.67,0-3.33,0-5,0-1.91,0-3.93.09-6.36.2-3.27.14-6.58.38-9.79.62l-.93.06c-3.78.28-7.11.56-10.16.85-1.5.15-3,.31-4.48.48-1,.12-2,.23-3,.33l-.24,0h0l-.15,0h0c-6.54.64-13,1.06-19.63,1.46-3.26.2-6.84.38-10.94.56-4.45.19-8.81.28-12.48.33-4.15.07-7.65.08-11.22,0l-4.06-.15c-3.06-.11-6.12-.22-9.18-.35l-3.45-.14c-3-.12-6-.24-9-.4-3.78-.19-7.88-.46-12.53-.84h0l-4-.36c-3.55-.32-7.22-.66-10.84-.93-3.12-.24-5.73-.41-8.21-.55s-4.78-.19-7.12-.24l-1.24,0c-5.11-.11-11.15-.22-17.15-.19-3.3,0-5.84.08-8.23.19-2.91.12-5.87.3-8.74.47-2.41.15-4.82.28-7.23.41-3.22.18-6.44.36-9.66.57-5.26.34-10.86.69-16.46.91s-11.45.39-17.28.49c-2,0-4.69.06-7.35,0-1.95,0-3.92-.09-5.83-.16l-2.26-.08-2.88-.09L490.73,6c-1.46,0-2.92-.11-4.35-.2-1.79-.12-3.59-.26-5.39-.41h0l-.51,0h-.14c-5.08-.45-10.33-.92-15.5-1.29-2.24-.16-4.5-.3-6.74-.43-2.6-.15-5.23-.31-7.83-.38-6.08-.16-12.12-.15-16.71-.12-2.11,0-4.27.06-6.35.12l-1.54,0q-4,.09-8.06.23l-7.31.21c-3.31.09-6.62.18-9.94.3-5.63.2-11.19.47-16.88.76L378.89,5,375,5.21,370,5.47l-3.65.2c-2.79.14-5.31.26-7.69.34-2.72.1-5.49.13-8.17.17h-.07c-2.41,0-4.24,0-6,0s-3.27-.1-4.86-.17l-.54,0c-4.1-.19-8.12-.5-11.52-.77h0l-.51,0c-2.32-.2-4.62-.41-6.93-.63l-7.43-.68-2.89-.25-4.43-.39-1.25-.11c-2-.18-4-.36-6-.52-2.22-.17-4.59-.36-7-.48s-5.22-.26-8-.34c-2.38-.08-4.82-.08-7.17-.08h-.29c-2.38,0-4.76,0-7.15,0-2.72,0-5.38.06-8,.14-2.4.07-5,.18-8.26.34-5.05.24-10.18.54-15.14.82l-1.13.07c-2.28.13-4.59.26-6.85.43l-4.07.32-2.95.23L221,4.14c-2,.15-3.92.3-5.88.48-2.35.21-4.74.46-7.05.7l-.62.07h0l-.52.05h0c-4.3.42-9.94.92-15.72,1.19-5.49.24-11.09.3-16.5.36h-.28c-4.46,0-10.35.08-16.28-.11-3.52-.11-7.07-.33-10.51-.54-1.91-.12-3.82-.24-5.73-.34l-2.38-.13c-4.31-.22-8.78-.46-13.17-.73l-7.8-.54c-2.84-.2-5.67-.4-8.51-.57-5.51-.34-11.18-.54-16.86-.61-3.76,0-7.58,0-11.27.1l-4.55.08c-5.84.08-11.77.12-17.5.16l-2.48,0c-5.48,0-11.05.14-16.44.23H39.86l-9,.19-9,.18-6.17.09-3,0-2.11,0-2.24,0c-1.87,0-3.78,0-5.62,0H2.27A1.56,1.56,0,0,0,1.2,5a.6.6,0,0,0-.2.41A.67.67,0,0,0,1.34,6a1.8,1.8,0,0,0,1,.26l.84.06c1.23.09,2.5.19,3.75.24,1.44.05,2.91.06,4.18.06,2.59,0,5.19,0,7.78,0,4.93,0,9.93-.15,14.77-.24l5.87-.1,1.77,0,3.54-.06L49,6.05c3.46,0,6.93-.08,10.4-.11l4.53-.05c6.38-.06,11.55-.14,16.27-.24l3-.08c1.51,0,3-.08,4.53-.1,2.76,0,5.7,0,9,0,7.69.11,15.46.66,23,1.2,3.2.22,6.39.45,9.59.64q3.53.23,7.07.42c4.45.27,9,.54,13.56.84,3.18.21,6.56.37,10.31.49s7.35.1,10.95.08h.28c3.72,0,7.37-.07,10.45-.11,2.85,0,6.59-.12,10.35-.33,3.35-.18,6.82-.44,10.61-.78,2.59-.24,5.22-.52,7.77-.79L214,6.78c3.16-.29,6.31-.54,9.36-.79l2.3-.18c2.66-.22,5.41-.44,8.13-.61,8.19-.5,15.08-.89,22.11-1.2,7.8-.35,15.57-.35,21.47-.31,3.65,0,7.05.11,10.39.27s6.64.37,10.4.66l4.82.43,5.44.48c2.17.19,4.34.38,6.5.59l4.83.46c3.35.33,6.81.68,10.24,1,5,.41,10.47.8,16,.91,2,0,4.07,0,6.05,0l1.83,0c2.85,0,5.71-.15,8.13-.25,3-.12,6-.28,8.86-.44l7.24-.38L384.72,7c3.58-.18,7.16-.36,10.74-.51,3.23-.13,6.05-.24,8.62-.32l2.8-.08q3-.07,6.09-.18l4.93-.17c3.57-.12,7.15-.25,10.73-.34s7.22-.15,11.47-.16c4.6,0,8.46,0,12.1.16,2.7.1,5.44.28,8.08.45l1.91.13c3.4.22,6.76.49,10.19.78h.17l.22,0,3.29.3c4.08.37,8.3.76,12.47,1,3.24.16,6.55.28,9.75.39l5.55.2c2.09.09,4.84.19,7.62.19h.1c2.59,0,5.23,0,7.78-.08h.55c5.31-.09,10.53-.27,16.75-.52,2.1-.09,4.24-.21,6.3-.33l2-.12c1.92-.11,3.84-.24,5.76-.37l2.42-.16,9.23-.57L570,6.23c3.18-.21,5.77-.34,8.14-.43,2.68-.09,5.51-.13,9.18-.13h.23c5.48,0,11.13.06,16.8.19,3.4.08,6,.19,8.44.34,3,.2,6.16.43,9.42.69h0l4.36.4c2.85.27,5.78.54,8.68.77,5,.4,10,.71,15.06.95l4.84.19,3,.12c2.82.12,5.65.23,8.47.33l2,.08c1.76.07,3.52.14,5.28.18,2.09.06,4.35.07,7.12.05,5.1-.05,10.09-.11,15-.32,5.28-.23,10-.48,14.39-.77,5-.33,9.11-.64,12.86-1,2.27-.2,4.57-.47,6.79-.72l3.65-.42c3.71-.36,7.68-.69,12.91-1.07,4.64-.33,10.12-.68,15.59-.72,5,0,10.1-.09,15.12,0,2.18,0,4.47.11,7,.24,2.33.11,4.67.3,6.95.49h.05l4.88.42h0l.5,0Z" transform="translate(-1 -1.68)"/></svg>