<svg xmlns="http://www.w3.org/2000/svg" viewBox="0 0 1214.22 1956.01"><defs><style>.a{fill:#bdbdbd;}.b{fill:#aa3c24;}.c{fill:#d24f27;}.d{fill:#010101;}.e{fill:#fff;}.f{fill:#b63e25;}.g{fill:#0b0c0b;}.h{fill:#fecf0a;}</style></defs><title>pirate-sven</title><path class="a" d="M382,414.52c2.2,7.32,5.71,12.92,5,17.92-1.23,8.54-3.68,17.7-8.48,24.6-2.5,3.59-11.35,4.51-16.93,3.74-6-.84-11.71-4.87-17.38-7.84-81.4-42.6-168.32-67.35-258.9-80.44-7.55-1.09-15.26-2.72-22.18-5.74-4.07-1.77-9.46-6.85-9.35-10.29.15-4.75,3.83-11.54,7.93-13.6a239.25,239.25,0,0,1,39.12-15.54A121.1,121.1,0,0,1,133,322.41c46.69-.67,93.67-3.05,139.54,8.18C315,341,355.43,356.88,392.28,380.77c6,3.92,11.93,10.25,14.56,16.8,5.11,12.7-.89,19.24-14.63,18.17C389.14,415.5,386.09,415,382,414.52Z" transform="translate(-37.28 -27.14)"/><path class="a" d="M992.17,420.42c-15.77-10.1-36.74-7.16-34.65-32.36l-10.66,9.19c0-2.78-.75-5.14.11-6.36,12.19-17.18,23.07-35.6,37.28-50.95,25.19-27.21,51.66-53.38,79-78.45C1100.92,227,1147.7,212,1197,203.72c2.52-.42,5.66-1.46,7.54-.43,4.71,2.56,11.13,5.36,12.58,9.55,1.4,4-1,12.19-4.45,14.64-39.7,28-70.26,65.17-102.17,101-30.43,34.15-54.9,72.3-75.79,112.85-2.64,5.11-5.11,10.32-7.86,15.37-4,7.31-9.29,11.94-18.58,9.93s-11.85-8.52-12.7-16.8C994.54,439.24,993.15,428.69,992.17,420.42Z" transform="translate(-37.28 -27.14)"/><path class="b" d="M1105.58,1194.8c-4.21-8-8.06-16-12.58-23.63-9.7-16.39-9.64-18.38,3.67-33.69-1.8-5.82-4.24-11.78-5.43-18-2-10.31,2.3-17.48,11-19.23,9-1.82,14.9,2.45,17.9,10.62,18.69,50.9,37.61,101.72,55.71,152.83,12.16,34.33,24.56,68.68,34.14,103.77,8.9,32.58,15,66,20.91,99.3,7.35,41.54,14,83.23,19.36,125.06,2.11,16.25,1.31,33.17-.45,49.54-1.31,12.09-7.09,23.35-18.9,29.62-20,10.64-43.89.25-51.25-24.23-6.6-22-12.22-44.52-15.26-67.22-9.77-73.12-28.56-144.13-48.81-214.77-4.51-15.72-14-29.94-20.56-45.15-2.86-6.67-14.39-11.44-5.2-21.85,1.24-1.41-4.77-8.43-6.27-13.22-2-6.42-6-14.68-3.67-19.52,5.54-11.48,2.66-22.88,2.34-33.88C1081.44,1205.2,1081.18,1204.11,1105.58,1194.8Z" transform="translate(-37.28 -27.14)"/><path class="b" d="M253.32,1250.78c12.12,9,17.41,30.54,10,44.18-7,12.9-14.08,25.88-22.24,38.08-20.41,30.55-35,63.77-46.91,98.33-16.89,49.18-29.48,99.25-28.62,151.71.45,27.47-3.91,4.47-2.75,31.92.09,1.92,1.64,13.29,1.72,15.2.65,15.53-3,20.94-19.38,27.25s-30.06-1.27-41.59-12.48c-11.09-10.78-13.36-25.64-17.21-39.88-15.46-57.17-3.39-63.56,7.44-120.5,9.72-51.12,23.62-100.69,49-146.64,15.75-28.51,29.9-57.91,45.45-86.53,6.08-11.18,14.58-21,21-32.06s17.57-12.16,27.62-15.13c6.37-1.89,12.53,3,10.76,9.55-2.15,8,0,12.54,4.57,18.67C254.81,1236.08,253,1243.12,253.32,1250.78Z" transform="translate(-37.28 -27.14)"/><path class="c" d="M1134.61,1142.63c-.61-4.57-.61-11.54,2.12-13.83,14.22-11.92,20-17.7,15.33-40.32-6.85-33.19-26.86-158.12-26.86-158.12s18.68-6.2,17.15-22c-.87-8.9-1.31-17.85-1.82-26.78-2.89-49.82-18.6-100.79-21.5-150.62,0,0,15.69-2.27,13.1-25.87s-21.49-130.63-49.64-204c13.43-10.21,5.55-22.49-1.72-35.14-28.24-49.11-67-88.61-111.45-123-32.38-25.05-67.06-44.54-108.58-49.58-46-5.59-92.12-3.6-138.11-1.58-57.52,2.54-102.27,1.74-172.42,11.17s-154.64,30.68-223.3,78.94S210.42,520.77,205.39,536.48c-6.5,20.32-3,25.48,16.57,33.09-4.39,11.94-8,24.24-13.31,35.76-21.19,46-29.36,95.26-36.24,144.62-4,28.74,26.47,30.52,26.47,30.52-11.93,84.66-16.2,193.87-18.42,230.92-.92,15.25,1.12,28.28,19,31.46-.21,4-.11,6.54-.51,9-7.07,44.87-15.35,89.59-20.95,134.63-4,32.29-4.84,65-6.3,97.56-.6,13.28,20.39,15.5,23.85,15.18-2.25,48.24-.47,196.88,4.17,234.25,1.82,13,17.91,7.6,17.91,7.6s5.67,12.57,7.75,18.58c11.44,33.17,28.74,62.81,53.09,88.15,15.08,15.69,33.42,33,51.3,45.35,21.41,14.86,29.22,17,40.14.08a5.17,5.17,0,0,1,1.82.12c2.89,1.36,5.82,2.66,8.56,4.26,47.47,27.79,91.24,43.64,142.68,49.94.11,3.21,9.17,73.47,10.61,105.37.34,7.65,1,15.31,1.94,22.9,2.57,19.74,2.59,20.42,23.1,23.16,48.11,6.42,61.82-14.49,55.53-51.28-2.79-16.35-1.45-79.1-1.47-97.6,17-.47,36.72,3.15,93.91-2.29s87.59-8.67,87.59-8.67,12.23,76,16.55,114.62c1,8.75,17.78,13.31,26.31,16.6,21.41,8.27,44.5-5,46.56-27.84,1.31-14.57.25-29.35.25-47.38-1.29-21.51.68-70.27.68-70.27s13.18-2.82,26.18-5.84c11.06,15.48,13.51,9.39,40.91-4.66S1038.82,1653.13,1062,1603s23.57-52.27,36-80.4c14.52-4.71,15-5,19-23.35,2.57-11.87,3.75-24,6.52-35.87,10.5-44.68,14.79-89.57,7.71-135.3-.84-5.46,8.49-13.17,10.39-19,3-9,2.91-16.38,3.26-25.45C1146.13,1250.51,1136.48,1156.58,1134.61,1142.63Z" transform="translate(-37.28 -27.14)"/><path class="d" d="M549.35,1292c-15.69-5.33-28.5-9-42.37-13.74-11,13.06-22.27,24.19-32.53,36.31a71.5,71.5,0,0,1-6.37,7.17c-10.17,9.11-19,6.53-22.35-6.68a85.55,85.55,0,0,1-2.11-15.15c-.55-8.28-1.1-49-1.1-49s-8.17-5.7-25.68-16.7-19.89-20.47-16-28.76c3.5-7.45,13.43-12.17,22.82-10.13a33.29,33.29,0,0,1,12.27,5.1c40.21,29.32,87.86,41.31,134.15,55.1,46,13.72,94.12,21.83,141.94,10.42,29.65-7.08,58.64-18.37,86.61-30.73,35.6-15.75,69.92-34.42,104.71-52,12.06-6.09,21.62-5.1,26.92,3.46,5.1,8.22,2.8,23.58-6,29.44-12.74,8.49-50.45,29.29-70.93,39.1,0,0-6.86,57.65-8.69,67.65-1.66,9.11-2,20.51-13.81,22.92-12.07,2.46-16.05-8.12-21.1-16-8.26-12.94-26.24-42.14-26.24-42.14s-28.34,7.37-42.14,10.92c-5.71,17.1-11.31,34-17,50.87a77.78,77.78,0,0,1-5.1,12.41c-6.7,12.25-18,12.87-25,.62-7.23-12.76-26.63-52.09-26.63-52.09s-11.5-.1-24.48-1-26.41-2.72-26.41-2.72-30.51,43.7-37.87,50.61c-10.27,9.64-18.62,6.55-21.53-7.26-2-9.36-2.81-19-4.1-28.46S550.74,1302.52,549.35,1292Zm133.89,16,25.14,43.09,13.82-49.62Zm-224.46-51.49c.15,17.86.28,33,.41,48.22l4.35,1.45,31-33.64ZM800.23,1280l23.71,36.87,5.39-48.86Zm-234.8,15.81c1.83,15.58,3.24,27.67,4.66,39.76l4.33,1.07L597,1303.76Z" transform="translate(-37.28 -27.14)"/><path class="e" d="M683.24,1308l39-6.53-13.82,49.62Z" transform="translate(-37.28 -27.14)"/><path class="e" d="M458.78,1256.49l35.73,16c-11.19,12.15-35.73,39-35.73,39S458.93,1274.35,458.78,1256.49Z" transform="translate(-37.28 -27.14)"/><path class="e" d="M800.23,1280l29.1-12-5.39,48.86Z" transform="translate(-37.28 -27.14)"/><path class="e" d="M565.43,1295.79l31.57,8c-8.28,12-26.22,39-26.22,39S567.26,1311.37,565.43,1295.79Z" transform="translate(-37.28 -27.14)"/><path class="d" d="M468.14,1154.62c13.78,2.66,27.1,2.11,40.83-2.85,41.51-15,83.29-29.26,125-43.67,4.8-1.66,10.19-4.07,14.77-3.23,5,.91,11.4,4.25,13.28,8.33s.43,11.47-2.37,15.4c-3.07,4.28-9.07,6.94-14.29,9.12-49.75,20.72-101,37-153.76,47.65-12,2.44-25.7,1.31-37.74-1.69-22-5.48-29.61-26-17.38-45.08,5.78-9,13.61-17,21.71-24.13,12.5-11,25.7-21.2,39.18-30.94,56.11-40.55,102.4-90.64,143-146.26,9.8-13.41,18.74-27.45,28-41.26,6.29-9.4,11.75-11.74,20.73-8.54,8.7,3.11,12.26,9,10.75,19.85a51.39,51.39,0,0,1-4.72,14.46c-11.6,24.49-26.5,46.81-45.77,66-33.16,33-67.08,64.86-104.79,92.94-28,20.84-52.76,46-79,69.21Z" transform="translate(-37.28 -27.14)"/><path class="d" d="M982.48,1058.49c.66,10.86-5.35,18.77-11.63,17.09a19.51,19.51,0,0,1-11.44-9.86c-2.51-5.78,4.76-15.52,10.78-14.52C975.19,1052,979.56,1056.64,982.48,1058.49Z" transform="translate(-37.28 -27.14)"/><path class="d" d="M1015.65,1146.93c-5.45-8.19-10.51-12.58-11.14-17.53-.87-6.74,4-11.82,11.55-12.22,6.58-.35,12.81,5.74,11,12.21C1025.66,1134.5,1021.17,1138.76,1015.65,1146.93Z" transform="translate(-37.28 -27.14)"/><path class="d" d="M963.32,1124.22c-7.3,6-11.15,11.45-16,12.61-6.17,1.46-10.37-3.8-10.64-10.24s3.7-11.5,10-11C951.21,1115.9,955.47,1120,963.32,1124.22Z" transform="translate(-37.28 -27.14)"/><path class="d" d="M348.64,1171.33c-1.67-2.47-5.4-5.87-6.4-9.95-1.74-7.07,5.08-16.1,10.69-14.4,4,1.21,8.39,5.42,9.93,9.34C365,1161.81,357.19,1170.88,348.64,1171.33Z" transform="translate(-37.28 -27.14)"/><path class="d" d="M290.24,1085.87c3.89,6.75,7.85,10.55,8,14.48.23,7.36-5.48,11.79-12.36,10.53-3.47-.63-9.16-7.35-8.44-9.1C279.5,1096.73,284.31,1092.8,290.24,1085.87Z" transform="translate(-37.28 -27.14)"/><path class="d" d="M287.73,1186.05c-.68,9.63-8.17,16.43-14.53,14.23-3-1-6.6-6.15-6.48-9.27.28-7.12,5.15-11.88,12.74-10.5C282.87,1181.13,285.76,1184.65,287.73,1186.05Z" transform="translate(-37.28 -27.14)"/><path class="d" d="M857.63,529c27.47,1.85,53.69,3.13,79.81,5.54,16.41,1.51,30.47,7.39,40,22.14,9.81,15.24-1.71,28.94-15.36,29.53-10.2.45-20.47-.91-30.69-.71-32.56.62-65.27-.16-97.62,2.76C748.27,596,662.88,603.46,576.9,601.58c-46.92-1-93.46,2.95-138.86,14.82-16.57,4.33-32.42,11.24-48.58,17-1.17.42-2.09,1.45-3.24,1.95-11.47,5-27.16,3.57-32.36-2.86-5.37-6.64-3-21.48,6.94-29.95s20.72-16.9,32.66-22.09c43.68-19,90.44-26.46,137.82-30.29,39.52-3.2,79.11-5.56,118.67-8.28,38.93-2.68,77.86-5.52,116.81-8C797.41,532,828.09,530.57,857.63,529Z" transform="translate(-37.28 -27.14)"/><path class="e" d="M654,715.52c.42,61.25-31.65,110.46-87.54,125.36-41.16,11-81.84,7.19-120.41-8.74-35.65-14.73-61.87-40.53-72.54-79.28-4.71-17.11-2-22.86,15.66-24.85,31.13-3.53,62.42-5.9,93.71-7.74,48.53-2.84,97.1-5,145.67-7C636.63,712.89,644.85,714.64,654,715.52Z" transform="translate(-37.28 -27.14)"/><path class="e" d="M847.16,828c-56.26-1.56-95.89-18.12-121.79-60.5a79.16,79.16,0,0,1-5.7-10c-9.7-22.78-11.22-37.26,21.16-40.47q84-8.31,168.07-16.45c22.93-2.22,45.9-4.15,68.83-6.34,15.21-1.45,18.47,1.32,17,16.72-1.16,12.09-2.33,24.35-5.34,36.06-9.58,37.31-32.85,62.21-70.9,70.25C892.26,822.8,865.41,825.33,847.16,828Z" transform="translate(-37.28 -27.14)"/><path class="f" d="M735,1619.63c7.67-16.52,13.61-28.89,19.16-41.43,3.32-7.5,7.24-13.93,16.85-11.22,7.84,2.21,10.66,10.12,6.53,20.86-5.7,14.82-11.55,29.71-18.91,43.74-9.06,17.3-22.44,20.63-37.29,9.15-21-16.24-31.74-39.73-40.36-63.94-1.12-3.15,3.59-10.26,7.41-12.64,2.68-1.68,9.66.22,12.51,2.89,3.8,3.56,5.08,9.65,8.08,14.23C716.77,1593.13,724.9,1604.76,735,1619.63Z" transform="translate(-37.28 -27.14)"/><path class="f" d="M402.58,1616.64c5.88-14.53,10.11-24.57,14-34.75,3.06-8,7.82-13.69,17-10.77s11.26,11.14,8,18.59c-8,18.22-16.5,36.34-26.61,53.44-4.65,7.86-14,8.39-21.86,1.95-3.69-3-8-6-10.27-10-8.17-14.42-16.14-29-22.94-44.11-1.82-4-.76-11.08,1.7-15,6.45-10.44,16.52-9.22,22.11,2C389.48,1589.44,395,1601,402.58,1616.64Z" transform="translate(-37.28 -27.14)"/><path class="f" d="M523.63,1515.07c7-15.87,11.79-27.09,16.85-38.2,3.14-6.9,5.77-14.3,10.26-20.23,4.86-6.41,14.09-3.85,15.8,4.07,1,4.57,1.35,10.2-.44,14.29-7.72,17.63-14.85,35.82-25.07,52s-24.87,16.36-34.9.07c-10.42-16.9-17.29-36.07-24.88-54.59-2.76-6.76,1.33-13.26,8.22-14,4.26-.45,11,2.94,13.19,6.64,4.87,8.24,7.53,17.79,11.18,26.77C516.32,1498,519,1504,523.63,1515.07Z" transform="translate(-37.28 -27.14)"/><path class="f" d="M324.21,1375.71c25.49,10.94,24.63,37.38,41.41,53.06,4.59-8.74,8.76-16.54,12.79-24.41,2.51-4.88,3.94-10.66,7.48-14.55,2.72-3,8.82-5.91,11.89-4.76,3.28,1.22,5.85,7,6.73,11.24.78,3.73-.28,8.52-2.13,12-7.1,13.33-13.87,27-22.63,39.21-7.66,10.67-20.63,11.21-28.15.57a382.23,382.23,0,0,1-30.14-51.68C319.08,1391.55,323,1383.63,324.21,1375.71Z" transform="translate(-37.28 -27.14)"/><path class="f" d="M777.12,1440.11c5.92-12.83,11.2-24.73,16.88-36.44,3.4-7,7.55-14.56,17.17-10.43,9.42,4,7.72,13.12,4.82,19.83-6.85,15.82-14.22,31.58-23.19,46.25-6.2,10.13-15.31,10.45-24.91,3-15.82-12.28-25.73-28.71-31.95-47.55-2.33-7.07-.51-12.61,6.63-15,6.47-2.15,10.33,1.71,12.75,7.48C760.34,1419.23,764.67,1431.73,777.12,1440.11Z" transform="translate(-37.28 -27.14)"/><path class="f" d="M976.26,1351.58c6.47-11.42,11-18.9,15-26.69,3.45-6.75,5.38-14.43,9.64-20.55,2-2.93,8.19-4.76,12-4.1,2.45.42,6.32,7,5.53,9.5-6.55,21.09-13.06,42.6-29.56,58.44-8,7.67-18.82,7.27-25.71-1.7-10.44-13.59-19.14-28.58-27.95-43.35-3.69-6.18-2-12.57,5-15.51s11.7.7,15.12,7C961.52,1325.89,968,1337,976.26,1351.58Z" transform="translate(-37.28 -27.14)"/><path class="f" d="M954.13,1554c8.53-15.55,14.38-26.45,20.47-37.21,2.35-4.16,4.67-8.67,8.14-11.75,1.91-1.69,7-2,9.13-.62s3.83,6.73,2.74,8.59c-13,22.24-21.63,47.69-47.83,67.51-2.1-4.28-3.85-8-5.73-11.62-6.93-13.47-14.12-26.81-20.77-40.41-4-8.18-7.15-16.76,5.65-23.81C934.74,1520.12,943.28,1535.06,954.13,1554Z" transform="translate(-37.28 -27.14)"/><path class="g" d="M983.5,1959.33q-67.1-12.55-134.2-25.12a78.87,78.87,0,0,1-8.71-2.1c-36.19-11.18-43.74-21.79-42.85-59.91.12-5.21-.55-10.46-.14-15.64,1.21-15.28,9-26.09,24.07-27.92a287.5,287.5,0,0,1,55.49-1.46,46.09,46.09,0,0,1,33,17c14.54,18,33.87,28.74,55.67,35.55,18.5,5.77,37,11.41,55.36,17.7,7.67,2.64,15.47,5.88,22.05,10.5,13.22,9.27,17.18,23.12,12.19,37.42-4.5,12.88-15.65,20.28-31.94,19.08-13.36-1-26.57-3.89-39.84-5.94C983.59,1958.77,983.55,1959.05,983.5,1959.33Z" transform="translate(-37.28 -27.14)"/><path class="g" d="M444.93,1975.78c44.28-10.52,93.56-21,137.84-31.56,2.9-.69.79-1.51,3.59-2.52,35.61-12.91,42.63-23.87,39.92-61.91-.38-5.19,0-10.47-.62-15.62-1.95-15.21-10.25-25.63-25.39-26.74a287.4,287.4,0,0,0-55.49,1.23,46.08,46.08,0,0,0-32.14,18.58c-13.66,18.66-32.44,30.34-53.89,38.19-18.2,6.66-36.45,13.18-54.44,20.35-7.54,3-15.17,6.62-21.52,11.55-12.76,9.89-16.05,23.93-10.37,38,5.12,12.65,16.61,19.51,32.83,17.52,13.29-1.62,26.34-5.16,39.5-7.86Z" transform="translate(-37.28 -27.14)"/><path class="d" d="M474.83,720.78c-5.57,10.58-9,23.5-8.94,38.68.15,27.61,27,50.3,54.23,46.44,30.63-4.35,60.16-36.22,62.32-69.92a55,55,0,0,0-4.33-20.55c-31.77,1.43-63.53,3-95.27,4.84Z" transform="translate(-37.28 -27.14)"/><path class="d" d="M813.67,709.9c-3.17,11.36-1.46,23.3-1.19,39.59.46,27.4,28.83,44,52.72,36.41,29.67-9.42,52.26-21.06,53.43-68.66A43.27,43.27,0,0,0,914.84,700l-5.94.55Q861.28,705.2,813.67,709.9Z" transform="translate(-37.28 -27.14)"/><path class="d" d="M1008.09,273.62c-28-31.05-73.64-33.28-104-61.94-21.89-20.63-32.77-50.28-49.91-74.21-15.93-22.26-36.75-42.28-57.37-60.26C712.4,3.62,583.32,11.08,515.23,100c-46.73,61.48-76,127-153.15,158.92-27.15,11.25-59.78,24.94-67.26,57.39C284.75,360,334,376.19,364.16,376c40.54-.27,70.41-17.86,111.59-12.12,45.47,6.34,68.15,20.69,124.36,30.05s124.65,12.33,159.79-.31S829.54,371,860.27,366.1c38.53-6.19,87.11,4.64,122.41-11.86C1010.06,341.44,1032.19,300.15,1008.09,273.62Z" transform="translate(-37.28 -27.14)"/><path class="e" d="M668.6,76.82c-45.28,0-77.65,40.25-78.52,83.87-.41,20.07,12.62,35.91,20.17,53.47,3.67,8.54,15.43,45.77,29.15,30.64,3-3.34,2.26-11,6.31-13.1,6.25-3.19,5.49,6.79,8.42,10.19,4.72,5.48,13.63,5.09,19.08.73,4.38-3.5,5.93-16.81,14.78-11.35,7,4.35,3.11,15.64,15.28,14.41,9.46-1,12.83-11.3,14.15-19.24,1.69-10.15,5.82-13.9,12.67-21.12,13.38-14.09,17.33-32.09,15.43-51-1.67-16.61-5.25-32.77-16.24-45.63C714,90.82,692.94,76.82,668.6,76.82ZM697,182.6c-18.66,0-18.54-35.24.85-34.14,7.92.45,14.38,8.64,15.86,16.09,2.33,11.71-5.79,18-16.71,18Zm-70.1-24.95c-.18,0,5-6.86,6.64-7.57,4.4-1.88,10.72-1.2,14.16,2.27,5.33,5.39,3,16.55-.66,22.45-3.92,6.3-14,11.45-20.47,5.43-4-3.78-4.29-10-3.08-14.9.15-.62,3.24-7.68,3.41-7.68Zm37.39,30c1.91-1.86,6.06-1.69,9.53,3.54,5.81,8.74,2.1,14.16-7.83,13.55-7.62-.48-7.3-2.5-5.07-9.32.13-.39,2.58-7.77,3.37-7.77Z" transform="translate(-37.28 -27.14)"/><path class="e" d="M580.05,229.62c-8.82,0-9.94,6-11.15,13.2-1,6.27-2.78,8.23-5.82,13-5.31,8.29-2.08,16.72,7.33,19.21,8.63,2.29,15.57-3.55,24.07-3.77a36.91,36.91,0,0,1,16,3.33c12.38,5.3,24.31,13.2,36.22,19.46,11.26,5.92,22.8,10.45,34.53,15.33,7.85,3.27,22.94,5.18,30.32,11.06,9.29,7.4,10.7,30.86,27.74,25.65,6-1.84,6.12-6.48,7.28-11.84,2.11-9.8,8.27-10.23,12.51-18.36,8.23-15.77-23.37-18.53-34.24-20.85-15.55-3.31-30.75-11.65-44.37-19.93-15.29-9.3-29.5-14.56-47.07-19-12.2-3.08-22.56-4.8-32.08-13.69-5.53-5.17-12.94-12.76-21.25-12.76Z" transform="translate(-37.28 -27.14)"/><path class="e" d="M626.87,290.1c-6.47,0-13.66,4-20,5-10.14,1.71-21.93-1.14-31.46,2.59C565,301.8,565.16,308.47,568.59,317c2,5,2.31,9.7,3.46,14.75,2.35,10.34,15.19,15.13,25.32,11.92,12.93-4.09,7.66-19.93,19.15-25.81,7.06-3.61,15.57-5.14,23-7.55,3.16-1,12.14-2.54,11.92-7.1-.11-2.31-6-4.44-7.83-5.36-4-2-12.66-7.75-16.77-7.75Z" transform="translate(-37.28 -27.14)"/><path class="e" d="M745.72,233.61c-7.75,0-13.77,6.41-19.46,10.93-8.59,6.8-18.5,11.09-28.72,14.92-4.34,1.62-12.85,3.8-14.82,8.15-1.46,3.21,2,5.05,10.46,9.36s11,7.36,18.39,5.28c6.49-1.85,11.5-4.49,18.39-3.89,11.47,1,24.74,9.27,33.22-2.82,5.92-8.44.35-13.14-2.73-21.22s-2.74-20.71-14.73-20.71Z" transform="translate(-37.28 -27.14)"/><path class="a" d="M177,1922.53c16.13-4.2,94.91-57,82.29-75.39-9-13.08-38.58,11.08-45.51,16.16-17.93,13.14-33.57,28.93-57.73,27.2-42.36-3-52-54.4-38.32-87.15,8.23-19.67,23.59-35.27,30.59-55.61,7.56-22,7.26-46.76,2.78-69.37-13.6,6-29,6.56-43.61,5.06,1.47,18.87,2.13,36.77-3.38,55.16s-18.1,31.13-26.52,48C59,1823.81,70.68,1872.25,93.24,1896c21.46,22.44,52.45,34.76,83.73,26.57Zm75.52-68.61Zm-128.25-88.67.3-.49-.3.49Z" transform="translate(-37.28 -27.14)"/><path class="d" d="M132,1683.46c27.12-3.37,67-25.6,71.54-55.51,3-19.47,2.24-40.49.56-60-1.53-17.75-1.69-33.86-21.55-39.17-22.55-6-46,.24-68.75,1.88-15.9,1.14-32.88,5.48-48.08,10.35-19.8,6.34-29.86,17.22-28.27,38.35C39,1600,44,1623,53.25,1641.63c15.07,30.52,44.91,45.46,78.74,41.83Z" transform="translate(-37.28 -27.14)"/><path class="h" d="M596,1083.22c-10.11.77-21,2.66-27.84,11.12-4.64,5.78-3.72,16,5.44,16.45,6.94.3,10.63-7.93,16.66-10.07,10.72-3.8,22.23.92,29.32,9,12,13.72,14,40.55,1.38,54.19-6.09,6.55-15.24,11.62-24.5,9.16-4.5-1.2-8-4.33-11.25-7.56-2.25-2.24-3.86-4-3.86-4l-12.64,4c8.52,16.17,21.38,25.66,40.14,22.63,15.8-2.55,28.25-15.58,32.29-30.8,8.06-30.37-6.87-77.32-45.14-74.2Z" transform="translate(-37.28 -27.14)"/></svg>